<svg width="304" height="181" xmlns="http://www.w3.org/2000/svg"><g fill="none" fill-rule="evenodd"><path fill="#002E3A" d="M0 0h303v189H0z"/><path d="M179.44552 120.031499c-3.257889-3.252415-8.588978-3.400252-11.994952-.295674l-14.660496-14.635867c1.480858-1.626207 2.369373-3.695926 2.517459-6.0613188h16.141354c.296172 1.9218818 1.77703 3.2524148 3.702146 3.2524148 2.073201 0 3.702145-1.626207 3.702145-3.6959259 0-2.0697186-1.628944-3.6959261-3.702145-3.6959261-1.925116 0-3.55406 1.4783704-3.702146 3.252415h-16.28944c-.148086-2.6610668-1.332773-5.1742965-3.257888-6.800504l16.733698-16.7055859c2.517459 2.2175556 6.219604 2.0697186 8.737063-.2956741 2.517459-2.5132297 2.517459-6.5048299 0-9.0180596-2.517459-2.5132298-6.515776-2.5132298-9.033235 0-2.369373 2.3653927-2.517459 6.2091558-.296172 8.7223855l-16.733698 16.7055859c-1.480858-1.0348593-3.257888-1.7740445-5.331089-1.9218816V62.6707266c4.146403-.2956741 7.404291-3.6959261 7.404291-7.8353633 0-4.2872743-3.55406-7.8353633-7.848549-7.8353633-4.294489 0-7.848548 3.548089-7.848548 7.8353633 0 4.1394372 3.257888 7.5396892 7.404291 7.8353633v26.3149937c-2.369373.147837-4.442575 1.0348593-6.071519 2.5132297l-14.660496-14.6358673c1.480858-1.7740445 1.480858-4.5829483-.296172-6.2091558-1.77703-1.7740445-4.738746-1.7740445-6.515776 0-1.77703 1.7740445-1.77703 4.7307854 0 6.5048299 1.77703 1.7740445 4.442574 1.7740445 6.219604.2956741l14.660497 14.6358673c-1.480858 1.6262075-2.369373 3.6959261-2.517459 6.0613188h-27.692049c-.296172-3.6959261-3.257888-6.652667-7.10812-6.652667C97.2578881 91.49895 94 94.6035279 94 98.5951281c0 3.9915999 3.1098023 7.0961779 7.108119 7.0961779 3.702146 0 6.811948-2.956741 7.10812-6.6526668h27.692049c.148086 1.9218818.740429 3.8437628 1.925115 5.3221338l-10.662179 10.49643c-3.109802-2.808904-7.848548-2.661067-10.810265.295674-3.109802 3.104578-3.109802 7.9832 0 11.087778s7.996635 3.104578 11.106437 0c2.961716-2.956741 3.109802-7.687526.296172-10.792104l10.514093-10.49643c1.628944 1.921882 4.146403 3.104578 6.811948 3.252415v10.939941c-2.073202.443511-3.702146 2.365393-3.702146 4.582948 0 2.51323 2.073202 4.582949 4.590661 4.582949 2.517459 0 4.59066-2.069719 4.59066-4.582949 0-2.513229-2.073201-4.582948-4.59066-4.582948v-10.792104c2.369373-.147837 4.442574-1.034859 6.071518-2.51323l14.660497 14.635867c-3.109802 3.400252-2.961717 8.722386.296171 11.974801 3.405974 3.400252 8.88515 3.400252 12.43921 0 3.405973-3.548089 3.405973-9.01806 0-12.418312z" fill="#FFF" fill-rule="nonzero"/></g></svg>