<svg width="304" height="181" xmlns="http://www.w3.org/2000/svg"><defs><linearGradient x1="50%" y1="-3.00525505%" x2="48.6185721%" y2="106.548847%" id="a"><stop stop-color="#0FFCE2" offset="0%"/><stop stop-color="#0958D5" offset="100%"/></linearGradient></defs><g fill="none" fill-rule="evenodd"><path fill="#FAFAFA" d="M0-10h310v204H0z"/><path d="M77.287337 98.9643007c-2.1842659-2.1805964-5.7585192-2.2797144-8.0420699-.198236l-9.8291964-9.8126838c.9928481-1.0902982 1.588557-2.4779504 1.6878418-4.0638387h10.8220446c.1985696 1.2885342 1.1914177 2.1805964 2.4821203 2.1805964 1.3899874 0 2.4821203-1.0902982 2.4821203-2.4779504 0-1.3876523-1.0921329-2.4779505-2.4821203-2.4779505-1.2907026 0-2.3828355.9911802-2.4821203 2.1805964H61.0046277c-.0992848-1.7841243-.8935633-3.4691306-2.1842659-4.5594288l11.2191838-11.200336c1.6878419 1.4867703 4.1699622 1.3876522 5.857804-.198236 1.6878418-1.6850063 1.6878418-4.3611928 0-6.0461991-1.6878418-1.6850063-4.3685318-1.6850063-6.0563736 0-1.588557 1.5858883-1.6878418 4.1629567-.1985696 5.847963l-11.2191839 11.200336c-.9928481-.6938261-2.1842658-1.1894162-3.5742532-1.2885342V60.5065099c2.7799747-.1982361 4.9642406-2.4779505 4.9642406-5.253255C59.8132099 52.3788324 57.4303744 50 54.5511149 50c-2.8792596 0-5.2620951 2.3788324-5.2620951 5.2532549 0 2.7753045 2.1842659 5.0550189 4.9642406 5.253255V78.149517c-1.588557.099118-2.9785444.6938261-4.0706773 1.6850063l-9.8291965-9.8126837c.9928481-1.1894162.9928481-3.0726586-.1985696-4.1629568-1.1914178-1.1894162-3.177114-1.1894162-4.3685318 0-1.1914177 1.1894162-1.1914177 3.1717766 0 4.3611928 1.1914178 1.1894162 2.9785444 1.1894162 4.1699622.198236l9.8291964 9.8126838c-.9928481 1.0902982-1.588557 2.4779504-1.6878418 4.0638387h-18.56626c-.1985696-2.4779504-2.1842659-4.4603108-4.765671-4.4603108S20 81.9160017 20 84.5921882c0 2.6761864 2.0849811 4.7576648 4.765671 4.7576648 2.4821203 0 4.5671014-1.9823603 4.765671-4.4603108h18.56626c.0992848 1.2885342.4964241 2.5770685 1.2907026 3.5682486l-7.1485065 7.0373793c-2.0849811-1.8832423-5.2620951-1.7841243-7.2477914.198236-2.084981 2.0814784-2.084981 5.3523729 0 7.4338509 2.0849811 2.081479 5.3613799 2.081479 7.446361 0 1.9856962-1.98236 2.0849811-5.1541365.1985696-7.2356148l7.0492217-7.0373793c1.092133 1.2885342 2.7799748 2.0814784 4.5671014 2.1805964v7.3347333c-1.3899874.2973541-2.4821203 1.5858883-2.4821203 3.0726584 0 1.685006 1.3899874 3.072659 3.0778292 3.072659s3.0778292-1.387653 3.0778292-3.072659c0-1.6850061-1.3899874-3.0726584-3.0778292-3.0726584v-7.2356153c1.588557-.099118 2.9785444-.6938261 4.0706773-1.6850063l9.8291965 9.8126838c-2.0849811 2.2797142-1.9856963 5.8479632.1985696 8.0285592 2.2835507 2.279715 5.9570888 2.279715 8.3399243 0 2.2835507-2.378832 2.2835507-6.046199 0-8.3259133z" fill="url(#a)" fill-rule="nonzero"/><text font-family="Lato-Black, Lato" font-size="26" font-weight="700" fill="#000"><tspan x="98" y="90">TYARE</tspan></text><text font-family="Lato-Black, Lato" font-size="26" font-weight="700" fill="#0ED6DF"><tspan x="182" y="90">VILCHES</tspan></text><text font-family="Lato-Semibold, Lato" font-size="9" font-weight="500" fill="#000"><tspan x="100" y="104">Jefa de Proyectos </tspan> <tspan x="100" y="115">Tel.: +56 9 6733 0231 </tspan> <tspan x="100" y="126">Email: tyare@oritec.cl </tspan> <tspan x="100" y="137">servicios@oritec.cl</tspan> <tspan x="100" y="148">www.oritec.cl</tspan></text></g></svg>