<svg width="692" height="462" xmlns="http://www.w3.org/2000/svg" xmlns:xlink="http://www.w3.org/1999/xlink"><defs><path id="a" d="M.07171717.8379238H354.459645V411H.07171717z"/></defs><g fill="none" fill-rule="evenodd"><path fill="#FAFAFA" d="M-24-271h741V732H-24z"/><path fill="#E7E7E7" d="M346 462L605-60H87z"/><g transform="translate(140 -1)"><mask id="b" fill="#fff"><use xlink:href="#a"/></mask><path d="M318.510303 184.921491l-3.17468-4.864292 7.505202-11.448607-5.310657-3.656237s-2.737205-5.790823-5.309461-4.844098c-2.573451.946726-8.435135-.998991-8.435135-.998991l-9.821666-2.437491-8.822408-3.409162s-11.847676-2.435116-14.520336-31.184922c-21.137441-8.520529-18.883132-6.786252-18.883132-6.786252l-25.672357-17.8689968-32.148417-21.3482428-33.751296-6.5855029-40.760455 10.2132312-3.839259 6.8337659 19.113821 2.9435203 19.603889 7.2839653 8.399276 10.2286738-8.588131 8.166546-4.711818 6.445335-16.919276 3.63248-14.682896 8.057263-15.219579.817248-11.9911111 8.831749-18.6237542 17.165783-15.6833502 10.246492-9.8013468 6.995315-18.6249495 2.707135-14.2119529-1.94928-9.693771-5.075731 2.34156565 7.025011L24.93367 204.155341l30.8395792 9.186919 18.1336868 3.728697 19.1138216-3.728697 27.4461614-7.424133 29.406431-14.768679 38.053131-18.11726 28.043805-8.767604 29.748283-.286275 9.527626 4.630283 18.047627 9.499327s20.952171-.08315 22.140286 3.56002c1.18931 3.643171 23.076195 3.253552 23.076195 3.253552" fill="#7B1F92" mask="url(#b)"/><path d="M330.347222 131.473673c.413569 9.548029 1.347088 19.147136 2.938014 28.634584 2.893788-1.809112 5.270017-3.779774 6.297963-5.000896.044225-.052266.082474-.103344.118333-.147295.8367-2.089448 1.406852-4.045855 1.73197-5.884664.822357-4.648101.008367-8.267515-1.783367-11.003159-1.821616-2.795038-4.664007-4.774015-7.815977-6.054529-.487677-.198373-.98372-.374176-1.486936-.544041zM49.4800673 216.695592c10.3918182 8.869761 21.0501852 16.902079 35.5717172 20.492983 6.6469865 1.639249 12.9306061 2.58835 19.0217845 2.249809 5.972845-.330225 11.82138-1.912456 17.72729-5.325182 10.081043-5.818144 20.783636-15.822312 32.226111-26.5095 10.051161-9.385292 20.649764-19.293242 32.05638-27.546503-9.902946 3.972209-19.888367 8.509839-29.872592 13.048656-36.578149 16.624119-73.1646637 33.239922-106.7306907 23.596865v-.007128zm257.7072897 13.268411c-.386078 1.457506-1.843131 2.405419-3.368317 2.140526-1.605269-.279147-2.687003-1.800798-2.404915-3.405598.754225-4.221659-.496044-8.752162-1.694916-13.08548-2.494563-9.053879-4.796684-17.380786 6.528653-23.979356 2.168249-1.265072 4.417778-2.161907 6.660135-3.051615.280892-.110471.555808-.220942.8367-.331414-5.024983-1.132031-10.436044-1.942153-15.906869-2.758213-12.811077-1.912457-25.918586-3.868865-36.251835-10.216795-2.990606-1.838809-4.92936-3.280873-6.461717-4.42122-.236667-.175803-.45899-.337352-.672946-.500089-10.133636 16.536216-9.097323 34.402838-8.045471 52.659078.531902 9.281948 1.079343 18.6613.222323 28.216456-.133872 1.449191-.237862 2.426801-.347828 3.412726-.503216 4.46517-1.014798 9.083575.125505 13.349185 2.302121 8.621497 9.051902 11.06374 15.417996 13.3575 1.649495.596306 3.27867 1.184297 4.839714 1.862566-.125505-1.294769-.245034-2.589537-.369343-3.884306-1.666229-17.366532-3.369512-35.101301-1.874209-56.152578.119528-1.619055 1.533552-2.838989 3.161532-2.72139 1.62798.117598 2.856734 1.522838 2.7384 3.140705-1.46542 20.631962.20798 38.087584 1.850304 55.188034.296431 3.097943.591666 6.186382.872558 9.276009.015539.117598.031078.235197.031078.353983.999259 11.208659 1.73197 22.507595 1.31601 34.717621-.139848 5.898919-1.072172 13.637835-2.08697 22.117977-2.560303 21.294789-5.697929 47.457434 1.583755 54.952838.444646-2.772468 1.103249-5.280043 1.88138-7.297032 1.495303-3.867676 3.722121-6.309919 6.342189-6.39782.199612-.008315.355-.008315.474528 0 .406397.028508.799647.109283 1.16899.242323 3.27867-35.526555 8.274966-58.594821 13.278434-81.653584 2.708519-12.505803 5.425404-25.009231 7.845859-39.456.266549-1.596485 1.790539-2.677439 3.397003-2.412546 1.606465.264893 2.694175 1.779416 2.427627 3.375902-2.250724 13.408578-4.722576 25.075751-7.217138 36.601569 2.021229 12.350194 3.449596 27.068983 4.840909 41.404093 1.39968 14.453896 2.768282 28.518173 4.685522 39.381165 1.405656 7.959858 2.886616 13.924109 4.521767 16.403176.008367-1.772289.125505-3.412726.349024-4.846474.635892-4.105249 2.302121-6.958491 4.832542-7.591622.141044-.036823.296431-.065332.473333-.087901 1.191701-.162737 2.31766.13898 3.352778.83863-.12431-8.591801-.392054-17.080257-.651431-25.523575-.976549-31.459318-1.931582-62.435177 4.056801-97.844133.265354-1.596486 1.791734-2.67744 3.397004-2.411359 1.606464.263706 2.694175 1.779417 2.427626 3.374714-1.073367 6.363373-1.924411 12.578263-2.583013 18.690997 6.794006-7.289904 14.388855-22.743979 15.305639-43.111049.688485-15.343604-2.456313-33.408598-12.63298-52.775488-.852239-1.626182-1.525185-2.905509-1.92441-3.729885-.059765-.117598-.111162-.228069-.170926-.345667-.880926.500089-1.710455 1.007306-2.523249 1.537092-1.385337.90515-2.665489 1.817428-4.019748 2.824734 1.806078 12.571136-4.34367 19.543882-10.724108 26.766078-3.664747 4.1492-7.409579 8.400555-9.289764 13.829081l-.021515-.022569zm14.262155-38.807428c-2.042744 1.154601-4.195455 2.015801-6.342189 2.868685-2.065454.823188-4.123737 1.647564-5.877222 2.663185-7.423923 4.325003-5.699125 10.583844-3.820135 17.380786.430303 1.54422.859411 3.112197 1.221583 4.700367 1.694916-2.294948 3.559562-4.414092 5.402693-6.502352 5.255674-5.958312 10.326078-11.709937 9.41527-21.117798v.007127zM164.270572 83.3534133c-1.006431-.1401676-1.709259-1.0738266-1.56941-2.0740058.141043-1.0001792 1.081734-1.6998295 2.086969-1.5596618 6.521482.9265318 13.767307 2.6845664 20.887627 5.7599393 5.891565 2.5443988 11.687508 5.9796936 16.890589 10.5695896.762592.6699537.8367 1.831682.155387 2.5895375-.672946.7566677-1.843131.8303151-2.604529.154422-4.900673-4.3178757-10.355959-7.5547977-15.906868-9.9519017-6.76532-2.9209509-13.693199-4.5970232-19.946936-5.4879191h.007171zm158.570253 89.6787747l-4.34367 4.317876 4.34367 4.317875 4.344865-4.317875-4.344865-4.317876zm4.604242-3.744139l6.024243 5.988009c.769764.764982 1.029141 1.853063.769764 2.831861l.1267-.059393c.547441-.263705 1.391314-.654512 2.226819-1.04413 6.143771-2.838988 11.850067-5.472477 7.312761-17.89513-1.843132 2.074006-6.098351 5.427338-10.65 7.803061-1.895724.985924-3.863165 1.824555-5.810287 2.368595v.007127zm-15.232727 5.988009l6.297963-6.260029c-.12431-.065332-.243838-.124726-.360976-.198373-.370539-.212627-.733906-.463266-1.096078-.764983-5.580791-4.611277-12.456077-6.046213-19.014613-7.421757-14.685286-3.074185-28.015117-5.862095-28.525505-36.35093-17.379461-4.332131-32.196229-14.910035-47.00702-25.4867519-27.896784-19.9192457-55.800741-39.8373035-100.260606-13.880159 10.902205 1.0156214 24.498586 4.4580434 33.283939 9.5397139 4.441684 2.5669682 7.801633 5.619772 9.281398 9.11446 1.665033 3.919942 1.080538 8.083396-2.701347 12.349005-5.958502 6.730422-20.960539 14.071405-50.100421 21.368437-16.2917508 4.082679-26.387138 13.688913-36.0832996 22.912656-15.5650168 14.806691-30.1690236 28.693977-65.7180303 20.558315 41.3078956 53.475139 92.4302859 30.253639 143.5526769 7.025011 20.894798-9.495763 41.781229-18.985586 62.209865-23.516089.037054-.007127.074108-.014255.118334-.02257 8.400471-1.853063 16.719663-2.875812 24.927693-2.705948 11.724562.242324 12.968855 1.161729 17.64601 4.648102 1.435539 1.066699 3.249983 2.412546 6.025438 4.119503 9.274226 5.693419 21.788872 7.561924 34.032188 9.393606 5.706297.852885 11.346852 1.691515 16.690977 2.919763l-3.190219-3.170401c-1.154646-1.147474-1.154646-3.008853 0-4.163454l-.008367-.007127zM337.252391 3.5457659c.124309-1.61786706 1.553872-2.8247341 3.181851-2.69882081 1.62798.12472543 2.842391 1.54421965 2.716886 3.1620867-.577323 7.04639311-2.153906 16.54334391-4.026919 27.80426881-4.138081 24.9355838-9.724849 58.6744075-8.977795 93.5036874 1.302862.338541 2.620067.764983 3.907391 1.287642 4.189478 1.698642 8.016784 4.405778 10.541229 8.281769 2.560303 3.928257 3.766346 8.95885 2.655926 15.211751-.072913.419315-.162559.845758-.259378 1.2722 10.829293 22.294968 1.828788 26.450107-7.941481 30.967543l-.035859.021382c.065741.140167.132677.280335.20559.426442.645454 1.310211 1.200067 2.384037 1.837155 3.589717 10.724107 20.412208 14.032659 39.491635 13.307121 55.74039-1.050657 23.346225-10.517323 40.985965-18.414579 48.399407-.940691.875454-2.302122 1.029876-3.38266.471581-2.257896 25.095945-1.539529 48.420789-.806818 72.02478.384882 12.51887.776936 25.119703.73271 38.168359.192441.956228-.017929 9.820049-7.764579 9.820049 0 0-6.461717-1.810301-6.721094-3.603971-5.36564-1.147474-8.6216-9.79748-10.849613-22.398312-1.924411-10.893876-3.308552-25.170781-4.738115-39.845619-.812794-8.399367-1.642323-16.931774-2.596161-25.030612-4.360404 20.81608-8.445893 43.581442-11.051617 76.998355-.007171.13898-.029882.280335-.058569.412188.044226.559483.074108 1.132032.096819 1.728338.057373 1.684387.021515 3.449549-.112357 5.251535-2.055893 11.195592-15.483738 3.324823-15.462222 2.391164-13.536617-6.634205-9.820472-37.536416-6.838233-62.360341 1.013603-8.444505 1.93995-16.153725 2.064259-21.575124v-.036824c.384883-11.450982-.265353-22.176182-1.190505-32.805164-2.124023-1.316151-4.773973-2.272379-7.489663-3.251177-7.771751-2.802164-16.025202-5.788448-19.119798-17.380786-1.42-5.332309-.843872-10.49713-.280892-15.490899.141044-1.26626.280892-2.523017.347828-3.273745.815185-9.076448.280892-18.278809-.243838-27.384954-1.096078-18.968957-2.168249-37.535228 8.518804-55.408977-1.806077-.308844-4.285101-.463266-8.119579-.54404-7.674932-.161549-15.513619.801806-23.470639 2.559841-22.055421 7.097471-41.59596 25.346584-59.351936 41.933878-11.701852 10.9307-22.641112 21.154622-33.315017 27.318434-6.764125 3.905688-13.485219 5.721928-20.361701 6.104419-6.7569524.375364-13.59638-.640257-20.7609255-2.412546-18.2448485-4.509122-30.4343771-15.122662-43.0613805-26.118694-3.6049831-3.140705-7.2541919-6.311107-11.1173569-9.393607-10.0296464-6.648459-19.70309761-16.358037-28.94026933-29.929352-.91080808-1.345847-.55461279-3.170402.79845118-4.08268.80801347-.536913 1.77739058-.631942 2.62843435-.33854 38.1248485 11.225289 52.4921885-2.433928 67.8791077-17.07907 10.2591415-9.760656 20.9461953-19.926372 38.739226-24.384416 27.831043-6.965618 41.84936-13.62952 47.089495-19.551008 2.064259-2.330584 2.46468-4.398651 1.702087-6.192321-.939495-2.214174-3.419714-4.3547-6.809545-6.3111071-10.895034-6.2968526-29.784142-9.8711272-39.826936-8.9232139-1.073367.1472948-2.19096-.3017167-2.842391-1.2579451-.91798-1.3387196-.570151-3.1620867.776936-4.0814913 52.743199-35.8947919 84.014276-13.5641879 115.285354 8.7676041 13.775673 9.8343033 27.548956 19.6686073 43.070942 24.0387483L255.775707 4.25135549c-.184074-1.61073988.976549-3.0670578 2.605724-3.24998844 1.620808-.1841185 3.086229.97048266 3.271498 2.58834971L275.360471 121.602546c.021516.184119.021516.367049.014344.544041-.065741 27.723494 11.295454 30.106344 23.84835 32.732705 7.261364 1.514523 14.862189 3.111009 21.582088 8.66426.075303.059393.170925.124725.282087.191246 1.488131.861199 3.995842.36111 6.690017-.742414-2.064259-11.614907-3.130455-23.375922-3.485455-35.019338-.014343-.13304-.014343-.257766-.008367-.389618-1.050656-36.1086072 4.738115-71.0257893 9.001701-96.7109135 1.834764-11.0708671 3.38266-20.405081 3.951616-27.3267486h.015539z" fill="#0B0B09" mask="url(#b)"/></g></g></svg>