<svg width="35" height="35" xmlns="http://www.w3.org/2000/svg"><g fill="#444" fill-rule="evenodd"><path d="M14.6633 17.9405h-2.888v2.652h2.755c.414-.012 1.179-.142 1.179-1.289 0-1.377-1.046-1.363-1.046-1.363M22.0581 16.411c-1.533 0-1.746 1.53-1.746 1.53h3.259s.02-1.53-1.513-1.53M15.3652 15.2289c0-1.032-.702-1.032-.702-1.032h-2.888v2.214h2.709c.468 0 .881-.15.881-1.182"/><path d="M25.473 19.265h-5.142c0 1.843 1.747 1.727 1.747 1.727 1.649 0 1.591-1.067 1.591-1.067h1.746c0 2.832-3.396 2.638-3.396 2.638-4.074 0-3.812-3.793-3.812-3.793s-.004-3.812 3.812-3.812c4.016 0 3.454 4.307 3.454 4.307zm-7.658.162c0 3.028-3.152 2.929-3.152 2.929H9.5v-9.923h5.163c1.569 0 2.808.867 2.808 2.642 0 1.776-1.514 1.888-1.514 1.888 1.996 0 1.858 2.464 1.858 2.464zm2.07-6.409h4.094v1.222h-4.094v-1.222zM17.5 1.5c-8.837 0-16 7.163-16 16 0 8.836 7.163 16 16 16s16-7.164 16-16c0-8.837-7.163-16-16-16z"/></g></svg>