<?xml version="1.0" encoding="UTF-8"?>
<svg width="96px" height="96px" viewBox="0 0 96 96" version="1.1" xmlns="http://www.w3.org/2000/svg" xmlns:xlink="http://www.w3.org/1999/xlink">
    <!-- Generator: Sketch 61.2 (89653) - https://sketch.com -->
    <title>designIcon</title>
    <desc>Created with Sketch.</desc>
    <g id="designIcon" stroke="none" stroke-width="1" fill="none" fill-rule="evenodd">
        <circle id="Oval" fill="#26EFF4" cx="48" cy="48" r="47"></circle>
        <g id="noun_design_2349632" transform="translate(20.000000, 20.000000)" fill="#000000" fill-rule="nonzero">
            <path d="M55.4389474,9.028451 L47.4810526,1.06217071 C46.0663158,-0.354056902 43.6494737,-0.354056902 42.2936842,1.06217071 L27.4389474,15.8735511 L17.0052632,5.36986301 C13.94,2.30136986 8.98842105,2.30136986 5.92315789,5.36986301 C4.44947368,6.84510011 3.62421053,8.79241307 3.62421053,10.9167545 C3.62421053,13.0410959 4.44947368,14.9884089 5.92315789,16.4636459 L16.3568421,26.9083246 L1.56105263,41.7787144 C0.146315789,43.194942 0.146315789,45.5553214 1.56105263,46.971549 L9.51894737,54.9378293 L9.51894737,54.9378293 C10.2263158,55.6459431 11.1105263,56 12.1126316,56 C13.1147368,56 13.9989474,55.6459431 14.7063158,54.9378293 L29.5021053,40.1264489 L41.4684211,52.1053741 C42.0578947,52.6954689 42.7652632,53.1085353 43.5905263,53.1675448 L50.3105263,54.3477345 C50.4873684,54.4067439 50.7231579,54.4067439 50.9,54.4067439 C51.9610526,54.4067439 52.9631579,53.9936776 53.6705263,53.2265543 C54.4957895,52.341412 54.9084211,51.1022129 54.7315789,49.8630137 L53.6115789,43.194942 C53.4936842,42.3688093 53.0810526,41.6606955 52.5505263,41.0706006 L40.6431579,29.032666 L55.4389474,14.2212856 C56.8536842,12.805058 56.8536842,10.4446786 55.4389474,9.028451 Z M18.7736842,24.6069547 L12.1126316,17.8798736 L18.42,11.5658588 L25.0810526,18.2339305 L18.7736842,24.6069547 Z M6.98421053,10.9167545 C6.98421053,9.73656481 7.39684211,8.61538462 8.28105263,7.73024236 C9.16526316,6.90410959 10.3442105,6.43203372 11.4642105,6.43203372 C12.6431579,6.43203372 13.7631579,6.84510011 14.6473684,7.73024236 L16.0621053,9.14646997 L9.69578947,15.5194942 L8.28105263,14.1032666 C7.45578947,13.2181243 6.98421053,12.0969442 6.98421053,10.9167545 Z M51.3126316,50.8071654 C51.2536842,50.8661749 51.1357895,50.9841939 50.9,50.9251844 L43.9442105,49.6859852 L42.8831579,48.682824 L49.1905263,42.3688093 L50.2515789,43.43098 C50.3105263,43.4899895 50.3694737,43.6080084 50.3694737,43.7260274 L51.4305263,50.3940991 C51.4894737,50.630137 51.3715789,50.748156 51.3126316,50.8071654 Z M46.7736842,40.0084299 L40.4663158,46.3224447 L31.9189474,37.7660695 L38.2263158,31.4520548 L46.7736842,40.0084299 Z M53.0221053,11.8609062 L12.3484211,52.5774499 C12.2305263,52.6954689 12.0536842,52.6954689 11.9357895,52.5774499 L3.97789474,44.6111697 C3.86,44.4931507 3.86,44.3161222 3.97789474,44.1981033 L6.86631579,41.3066386 L9.75473684,44.1981033 C10.1084211,44.5521602 10.5210526,44.6701791 10.9336842,44.6701791 C11.3463158,44.6701791 11.8178947,44.4931507 12.1126316,44.1981033 C12.7610526,43.5489989 12.7610526,42.4868282 12.1126316,41.7787144 L9.22421053,38.8872497 L13.2915789,34.8155954 L16.18,37.7070601 C16.5336842,38.061117 16.9463158,38.1791359 17.3589474,38.1791359 C17.7715789,38.1791359 18.2431579,38.0021075 18.5378947,37.7070601 C19.1863158,37.0579557 19.1863158,35.995785 18.5378947,35.2876712 L15.6494737,32.3962065 L19.7168421,28.3245522 L24.3736842,32.7502634 C24.7273684,33.1043203 25.14,33.2223393 25.5526316,33.2223393 C25.9652632,33.2223393 26.4368421,33.0453109 26.7315789,32.7502634 C27.38,32.1011591 27.38,31.0389884 26.7315789,30.3308746 L22.2515789,25.8461538 L26.3189474,21.7744995 L29.2073684,24.6659642 C29.5610526,25.0200211 29.9736842,25.13804 30.3863158,25.13804 C30.7989474,25.13804 31.2705263,24.9610116 31.5652632,24.6659642 C32.2136842,24.0168599 32.2136842,22.9546891 31.5652632,22.2465753 L28.6768421,19.3551106 L32.7442105,15.2834563 L35.6326316,18.174921 C35.9863158,18.5289779 36.3989474,18.6469968 36.8115789,18.6469968 C37.2242105,18.6469968 37.6957895,18.4699684 37.9905263,18.174921 C38.6389474,17.5258166 38.6389474,16.4636459 37.9905263,15.7555321 L35.1021053,12.8640674 L39.1694737,8.79241307 L43.8263158,13.2771338 C44.18,13.6311907 44.5926316,13.7492097 45.0052632,13.7492097 C45.4178947,13.7492097 45.8894737,13.5721812 46.1842105,13.2771338 C46.8326316,12.6280295 46.8326316,11.5658588 46.1842105,10.857745 L41.7042105,6.37302424 L44.5926316,3.48155954 L45.0052632,3.48155954 L52.9631579,11.4478398 C53.14,11.5658588 53.14,11.7428872 53.0221053,11.8609062 Z" id="Shape"></path>
        </g>
    </g>
</svg>