<?xml version="1.0" encoding="UTF-8"?>
<svg width="96px" height="96px" viewBox="0 0 96 96" version="1.1" xmlns="http://www.w3.org/2000/svg" xmlns:xlink="http://www.w3.org/1999/xlink">
    <!-- Generator: Sketch 61.2 (89653) - https://sketch.com -->
    <title>devepIcon</title>
    <desc>Created with Sketch.</desc>
    <g id="devepIcon" stroke="none" stroke-width="1" fill="none" fill-rule="evenodd">
        <circle id="Oval" fill="#F42685" cx="48" cy="48" r="47"></circle>
        <g id="noun_code_246387" transform="translate(16.000000, 24.000000)" fill="#FFFFFF" fill-rule="nonzero">
            <path d="M29.2339179,47.4523959 C28.8876398,48.600052 27.6709675,49.2541942 26.5294787,48.906772 L23.7621456,48.0636554 C22.6206568,47.7155064 21.9700299,46.4922605 22.3155851,45.3446044 L35.5160821,1.5476041 C35.8623602,0.399947965 37.0790325,-0.254194228 38.2205213,0.0932279588 L40.9878544,0.936344563 C42.1293432,1.28449357 42.7799701,2.50773948 42.4344149,3.65539561 L29.2339179,47.4523959 Z M20.3832232,37.9418952 C21.1466254,38.8635089 21.0215605,40.2452026 20.1056224,41.0134562 L17.884093,42.8748542 C16.9674319,43.6431079 15.5931633,43.5173672 14.8297611,42.5957535 L0.756701118,25.6164027 C0.247766294,25.0022358 0.247766294,23.9970373 0.756701118,23.3835973 L14.8312069,6.4049733 C15.5946092,5.48335963 16.9696007,5.35834579 17.8855388,6.12587263 L20.1063453,7.98727058 C21.0230063,8.75552424 21.1473484,10.1372179 20.3839461,11.0588316 L9.24159889,24.5 L20.3832232,37.9418952 Z M55.5084011,24.5 L44.3660539,11.0581048 C43.6026516,10.1364911 43.7277166,8.75479742 44.6436547,7.98654375 L46.8644612,6.1251458 C47.7811222,5.35689214 49.1553908,5.4826328 49.9187931,6.40424647 L63.9932989,23.3828705 C64.5022337,23.9970373 64.5022337,25.0022358 63.9932989,25.6156759 L49.9202389,42.5942999 C49.1568367,43.5159135 47.7818451,43.6409274 46.865907,42.8734005 L44.6443776,41.0120026 C43.7277166,40.2437489 43.6033746,38.8620553 44.3667768,37.9404416 L55.5084011,24.5 Z" id="Shape"></path>
        </g>
    </g>
</svg>