<svg width="35" height="35" xmlns="http://www.w3.org/2000/svg"><path d="M17.499 1.5C8.664 1.5 1.5 8.84440313 1.5 17.9062257c0 7.2469972 4.584 13.3958714 10.943 15.5654591.8.1507228 1.092-.3557877 1.092-.7905256 0-.3896235-.014-1.4211004-.022-2.7899093-4.451.9914893-5.39-2.1993222-5.39-2.1993222-.727-1.8948007-1.776-2.3992606-1.776-2.3992606-1.453-1.0181477.11-.9976412.11-.9976412 1.605.1158617 2.45 1.690761 2.45 1.690761 1.428 2.5069196 3.745 1.7830402 4.657 1.3626569.145-1.0601861.559-1.7830402 1.016-2.1931702-3.553-.4142313-7.288-1.8209773-7.288-8.107245 0-1.7912428.623-3.2554069 1.647-4.4027456-.165-.4152566-.714-2.0824351.156-4.34122615 0 0 1.344-.44088976 4.4 1.68153303 1.277-.36399038 2.645-.54547291 4.006-.55265018 1.359.00717727 2.728.1886598 4.006.55265018 3.054-2.12242279 4.395-1.68153303 4.395-1.68153303.873 2.25879105.324 3.92596955.159 4.34122615 1.026 1.1473387 1.645 2.6115028 1.645 4.4027456 0 6.3016476-3.741 7.6889124-7.305 8.0949411.574.5065105 1.086 1.5072278 1.086 3.038038 0 2.1931702-.02 3.9618559-.02 4.5001515 0 .4388392.288.949451 1.1.788475C28.92 31.2959451 33.5 25.1511723 33.5 17.9062257 33.5 8.84440313 26.336 1.5 17.499 1.5" fill="#444" fill-rule="evenodd"/></svg>