<?xml version="1.0" encoding="UTF-8"?>
<svg width="2000px" height="500px" viewBox="0 0 2000 500" version="1.1" xmlns="http://www.w3.org/2000/svg" xmlns:xlink="http://www.w3.org/1999/xlink">
    <!-- Generator: Sketch 61.2 (89653) - https://sketch.com -->
    <title>Design_Background</title>
    <desc>Created with Sketch.</desc>
    <g id="Design_Background" stroke="none" stroke-width="1" fill="none" fill-rule="evenodd">
        <rect id="Rectangle" fill="#FAFAFA" x="0" y="-124" width="2001" height="791"></rect>
        <path d="M5.68434189e-14,315 C5.68434189e-14,315 105.899278,244.998687 146.068691,234.501208 C186.23636,223.999002 299.440119,178.499685 335.957292,150.500105 C372.472721,122.498162 477.510391,0 477.510391,0 L5.68434189e-14,0 L5.68434189e-14,315 Z" id="Fill-3" fill="#26EFF4"></path>
        <path d="M2000,512 L2000,-196 C2000,-196 1823.94504,-185.43186 1704.37946,-106.178537 C1584.81537,-26.9252134 1493.56886,31.1942073 1452.6652,119.253323 C1411.76154,207.313628 1355.1264,305.940884 1342.54031,330.597104 C1329.95422,355.253323 1263.87988,425.702043 1245,512 L1433.78682,512 C1433.78682,512 1536.84246,434.082113 1579.84706,412.785295 C1627.74633,389.067329 1731.81187,338.220863 1795.62747,335.87939 C1833.43383,334.49282 1926.73469,378.295841 1908.89776,392.238841 C1868.11883,424.115692 1625.71903,512 1625.71903,512 L2000,512 Z" id="Fill-5" fill="#26EFF4"></path>
    </g>
</svg>