<?xml version="1.0" encoding="UTF-8"?>
<svg width="300px" height="250px" viewBox="0 0 300 250" version="1.1" xmlns="http://www.w3.org/2000/svg" xmlns:xlink="http://www.w3.org/1999/xlink">
    <!-- Generator: Sketch 61.2 (89653) - https://sketch.com -->
    <title>img4</title>
    <desc>Created with Sketch.</desc>
    <g id="img4" stroke="none" stroke-width="1" fill="none" fill-rule="evenodd">
        <rect id="Rectangle" fill="#011533" x="0" y="0" width="300" height="250"></rect>
        <g id="noun_style-guide_194081" transform="translate(95.000000, 80.000000)">
            <g id="Group" transform="translate(0.281758, 0.000000)">
                <path d="M59.5441,39.6032 C56.89178,39.6032 54.24672,40.62604 52.2236,42.6559467 C48.17736,46.7133333 45.91466,58.8527333 36.21893,64.4704667 C47.795,65.3198 58.20826,65.1196 66.87065,57.3384933 C71.12985,53.5104267 70.9181,46.7133333 66.87065,42.6559467 C64.84753,40.62604 62.19884,39.6032 59.55015,39.6032 L59.5441,39.6032 Z" id="Path" fill="#FFFFFF"></path>
                <path d="M95.59,27.07432 L95.59,80.9657333 C95.59,82.082 94.27352,83.72 93.16032,83.72 L9.83851,83.72 C8.72531,83.72 7.26,82.082 7.26,80.9657333 L7.26,39.31564 L24.74934,39.2040133 C28.40475,39.1797467 30.20402,37.8681333 30.24395,34.2026533 L30.5767,16.9866667 L80.09716,16.9866667 L87.91981,8.80394667 L28.13613,8.73964 L0,35.43176 L0,80.9657333 C0,86.4148133 4.40561,91 9.83851,91 L93.16032,91 C98.59443,91 102.85,86.4148133 102.85,80.96452 L102.85,19.23012 L95.59,27.07432 Z" id="Path" fill="#FFFFFF" fill-rule="nonzero"></path>
                <g transform="translate(66.550000, 0.000000)" id="Path">
                    <line x1="37.10102" y1="5.63350667" x2="6.02822" y2="36.79312" fill="#000000"></line>
                    <path d="M6.02701,42.0225867 C4.69238,42.0225867 3.35775,41.5117733 2.33893,40.49136 C0.3025,38.4481067 0.3025,35.13692 2.33893,33.09488 L33.41294,1.93648 C35.45179,-0.104346667 38.75267,-0.104346667 40.7891,1.93648 C42.82553,3.97973333 42.82553,7.29092 40.7891,9.33296 L9.71509,40.49136 C8.69627,41.5117733 7.36164,42.0225867 6.02701,42.0225867 Z" fill="#FFFFFF"></path>
                </g>
            </g>
        </g>
    </g>
</svg>