<?xml version="1.0" encoding="UTF-8"?>
<svg width="300px" height="250px" viewBox="0 0 300 250" version="1.1" xmlns="http://www.w3.org/2000/svg" xmlns:xlink="http://www.w3.org/1999/xlink">
    <!-- Generator: Sketch 61.2 (89653) - https://sketch.com -->
    <title>img5</title>
    <desc>Created with Sketch.</desc>
    <g id="img5" stroke="none" stroke-width="1" fill="none" fill-rule="evenodd">
        <rect id="Rectangle" fill="#F42685" x="0" y="0" width="300" height="250"></rect>
        <g id="noun_gallery_3076828" transform="translate(82.000000, 88.000000)" fill="#FFFFFF" fill-rule="nonzero">
            <path d="M22.33677,8.26667171 L22.33677,66.7333283 L10.277056,69.7085862 C5.99069596,70.7660763 1.64721996,68.1942809 0.57562996,63.9643224 C0.41698796,63.3381059 0.33676996,62.6950539 0.33676996,62.0495664 L0.33676996,12.9504336 C0.33676996,8.59029079 3.91849196,5.05569671 8.33676996,5.05569671 C8.99086396,5.05569671 9.64248996,5.13485921 10.277056,5.29141382 L22.33677,8.26667171 Z M114.33677,66.7333283 L114.33677,8.26667171 L126.396484,5.29141382 C127.03105,5.13485921 127.682676,5.05569671 128.33677,5.05569671 C132.755048,5.05569671 136.33677,8.59029079 136.33677,12.9504336 L136.33677,62.0495664 C136.33677,62.6950539 136.256552,63.3381059 136.09791,63.9643224 C135.02632,68.1942809 130.682844,70.7660763 126.396484,69.7085862 L114.33677,66.7333283 Z M46.471898,75 L38.33677,75 C34.8253,75 31.842234,72.7673961 30.76566,69.6621454 L48.42948,51.0686507 L59.308478,61.804502 L46.471898,75 Z M57.561642,75 L92.27966,39.311248 L106.33677,54.3394105 L106.33677,67.1052632 C106.33677,71.4654059 102.755048,75 98.33677,75 L57.561642,75 Z M106.33677,42.7000638 L95.275984,30.8752105 C93.713182,29.2044513 91.04686,29.1787007 89.45122,30.8189526 L64.849886,56.1081533 L51.165198,42.603525 C49.56736,41.0267132 46.96411,41.0681388 45.418622,42.6949697 L30.33677,58.5706026 L30.33677,7.89473684 C30.33677,3.53459408 33.918492,0 38.33677,0 L98.33677,0 C102.755048,0 106.33677,3.53459408 106.33677,7.89473684 L106.33677,42.7000638 Z M48.33677,31.5789474 C54.964186,31.5789474 60.33677,26.2770553 60.33677,19.7368421 C60.33677,13.1966289 54.964186,7.89473684 48.33677,7.89473684 C41.709354,7.89473684 36.33677,13.1966289 36.33677,19.7368421 C36.33677,26.2770553 41.709354,31.5789474 48.33677,31.5789474 Z M48.33677,23.6842105 C46.127632,23.6842105 44.33677,21.9169125 44.33677,19.7368421 C44.33677,17.5567717 46.127632,15.7894737 48.33677,15.7894737 C50.545908,15.7894737 52.33677,17.5567717 52.33677,19.7368421 C52.33677,21.9169125 50.545908,23.6842105 48.33677,23.6842105 Z" id="Shape"></path>
        </g>
    </g>
</svg>