<?xml version="1.0" encoding="UTF-8"?>
<svg width="300px" height="250px" viewBox="0 0 300 250" version="1.1" xmlns="http://www.w3.org/2000/svg" xmlns:xlink="http://www.w3.org/1999/xlink">
    <!-- Generator: Sketch 61.2 (89653) - https://sketch.com -->
    <title>img6</title>
    <desc>Created with Sketch.</desc>
    <g id="img6" stroke="none" stroke-width="1" fill="none" fill-rule="evenodd">
        <rect id="Rectangle" fill="#011533" x="0" y="0" width="300" height="250"></rect>
        <g id="noun_dice-question-mark_1216353" transform="translate(99.000000, 81.000000)" fill="#FFFFFF" fill-rule="nonzero">
            <path d="M94.8584366,38.7440527 C93.6902222,38.2755765 92.3732847,38.8441156 91.9055449,40.0084835 C91.4389403,41.1739885 92.0043152,42.4975474 93.1679884,42.9660235 C97.9907044,44.9024675 97.4344118,46.6023991 97.1358303,47.5143358 C96.4841733,49.5008111 90.5704427,51.8807155 82.8050526,53.4112226 L92.6525663,36.3288989 C94.579155,32.9870265 93.4347818,28.7150242 90.1004322,26.7854028 L45.4028921,0.937344349 C42.066272,-0.992277115 37.8021192,0.152760489 35.8721246,3.49576998 L12.8711299,43.4003873 C7.84860271,41.8050668 5.41340362,40.0039352 5.403186,38.7736167 C5.38388605,36.7882784 8.28682502,34.0069855 16.4915727,32.1524112 C17.7142811,31.8749641 18.4828731,30.6582906 18.2058621,29.4325205 C17.9299864,28.2078874 16.7152251,27.4414968 15.4913814,27.7155326 C2.69778766,30.6071221 0.834775207,35.9115913 0.861730928,38.8156886 C0.93354552,46.9958282 18.4556261,49.8248784 26.9396554,50.7140734 C26.9385201,50.7641048 26.9453318,50.8129992 26.9407907,50.8641677 C26.9260319,50.9858351 26.9033261,51.101817 26.8658615,51.2132507 C26.5979328,52.3366838 25.5228123,53.1212677 24.343245,53.0041486 C18.3000912,52.4196905 13.2900522,51.4645449 9.31653392,50.1739613 C8.63649463,53.0917036 9.8955323,56.2300391 12.6190953,57.8071663 L55.9906156,82.8831487 L41.773367,82.8831487 C40.3622003,82.8831487 39.2189623,84.0293234 39.2189623,85.4415744 C39.2189623,86.8538253 40.3622003,88 41.773367,88 L77.8495076,88 C79.2595389,88 80.4039122,86.8538253 80.4039122,85.4415744 C80.4039122,84.0293234 79.2595389,82.8831487 77.8495076,82.8831487 L65.3635777,82.8831487 C65.9380349,82.3851086 66.4443747,81.7915538 66.8462677,81.095662 L78.01526,61.7198519 C75.5448669,61.9415821 73.1573501,62.05529 70.987809,62.070072 C69.8150535,62.0723461 68.8262151,61.2707061 68.5571511,60.1825224 C68.4924395,59.9892191 68.4663278,59.7822709 68.4742749,59.5696373 C68.4742749,59.550307 68.4810866,59.535525 68.4810866,59.5161947 C78.4761882,59.2853678 98.9818134,56.4642771 101.452206,48.9322721 C102.446721,45.8917254 102.110675,41.6561096 94.8584366,38.7440527 Z M43.7748849,63.5687409 L36.5464874,59.3888419 L40.719817,52.1467918 L47.950485,56.3278278 L43.7748849,63.5687409 Z M48.719077,53.4430607 L42.1605012,49.6497683 C42.6872762,48.6957599 43.0108341,48.1135759 43.1300397,47.9089018 C44.3572892,45.7791546 45.718503,44.2304543 47.2159518,43.263938 C48.7099947,42.2940104 51.0089589,41.5628692 54.1071679,41.064829 C57.2065122,40.5667888 59.1149363,40.1699486 59.8335754,39.8765824 C60.9541076,39.4012838 61.8044405,38.6576348 62.3902507,37.6433611 C63.203119,36.2356585 63.3370833,34.7040144 62.7921437,33.0495658 C62.2483393,31.3939801 61.0244956,30.0169786 59.121748,28.9174241 C57.2871178,27.8553932 55.4513524,27.4926653 53.6110457,27.8258292 C51.7718744,28.1601301 50.0008205,29.2676442 48.3012899,31.14496 L42.1389306,26.4818029 C44.1007134,23.5163033 46.9105585,21.6628661 50.5775483,20.9169429 C54.2411322,20.1744309 58.0466275,20.9419586 61.9906282,23.2229372 C66.1423873,25.623309 68.818268,28.6195097 70.0171353,32.2104022 C71.2160025,35.8012947 70.9832679,39.039693 69.3223372,41.92446 C68.400481,43.5220547 67.077867,44.7717035 65.3567659,45.6790918 C63.6345295,46.5842059 60.5896792,47.4119987 56.2256208,48.1636073 C53.9652565,48.5513509 52.4280726,49.0255125 51.6140689,49.5849549 C50.7977947,50.1432602 49.8339327,51.4304326 48.719077,53.4430607 Z M36.4136584,85.4415744 C36.4136584,86.8538253 35.2704204,88 33.8592537,88 L21.7945168,88 C20.3833501,88 19.2401121,86.8538253 19.2401121,85.4415744 C19.2401121,84.0293234 20.3833501,82.8831487 21.7945168,82.8831487 L33.8592537,82.8831487 C35.2704204,82.8831487 36.4136584,84.0293234 36.4136584,85.4415744 Z" id="Shape"></path>
        </g>
    </g>
</svg>