<?xml version="1.0" encoding="UTF-8"?>
<svg width="300px" height="250px" viewBox="0 0 300 250" version="1.1" xmlns="http://www.w3.org/2000/svg" xmlns:xlink="http://www.w3.org/1999/xlink">
    <!-- Generator: Sketch 61.2 (89653) - https://sketch.com -->
    <title>img7</title>
    <desc>Created with Sketch.</desc>
    <g id="img7" stroke="none" stroke-width="1" fill="none" fill-rule="evenodd">
        <rect id="Rectangle" fill="#F42685" x="0" y="0" width="300" height="250"></rect>
        <g id="icon-settings" transform="translate(110.000000, 85.000000)" fill="#FFFFFF" fill-rule="nonzero">
            <path d="M65,60 L37.25,60 C36.25,55.75 32.25,52.5 27.5,52.5 C22.75,52.5 19,55.75 17.75,60 L15,60 C13.5,60 12.5,61 12.5,62.5 C12.5,64 13.5,65 15,65 L17.75,65 C18.75,69.25 22.75,72.5 27.5,72.5 C32.25,72.5 36,69.25 37.25,65 L65,65 C66.5,65 67.5,64 67.5,62.5 C67.5,61 66.5,60 65,60 Z M27.5,68.5 C24.25,68.5 21.5,65.75 21.5,62.5 C21.5,59.25 24.25,56.5 27.5,56.5 C30.75,56.5 33.5,59.25 33.5,62.5 C33.5,65.75 30.75,68.5 27.5,68.5 Z M65,20 L37.25,20 C36.25,15.75 32.25,12.5 27.5,12.5 C22.75,12.5 19,15.75 17.75,20 L15,20 C13.5,20 12.5,21 12.5,22.5 C12.5,24 13.5,25 15,25 L17.75,25 C18.75,29.25 22.75,32.5 27.5,32.5 C32.25,32.5 36,29.25 37.25,25 L65,25 C66.5,25 67.5,24 67.5,22.5 C67.5,21 66.5,20 65,20 Z M27.5,28.5 C24.25,28.5 21.5,25.75 21.5,22.5 C21.5,19.25 24.25,16.5 27.5,16.5 C30.75,16.5 33.5,19.25 33.5,22.5 C33.5,25.75 30.75,28.5 27.5,28.5 Z M65,40 L59.75,40 C58.75,35.75 54.75,32.5 50,32.5 C45.25,32.5 41.5,35.75 40.25,40 L15,40 C13.5,40 12.5,41 12.5,42.5 C12.5,44 13.5,45 15,45 L40.25,45 C41.25,49.25 45.25,52.5 50,52.5 C54.75,52.5 58.5,49.25 59.75,45 L65,45 C66.5,45 67.5,44 67.5,42.5 C67.5,41 66.5,40 65,40 Z M50,48.5 C46.75,48.5 44,45.75 44,42.5 C44,39.25 46.75,36.5 50,36.5 C53.25,36.5 56,39.25 56,42.5 C56,45.75 53.25,48.5 50,48.5 Z M70,0 L10,0 C4.5,0 0,4.5 0,10 L0,70 C0,75.5 4.5,80 10,80 L70,80 C75.5,80 80,75.5 80,70 L80,10 C80,4.5 75.5,0 70,0 Z M75,70 C75,72.75 72.75,75 70,75 L10,75 C7.25,75 5,72.75 5,70 L5,10 C5,7.25 7.25,5 10,5 L70,5 C72.75,5 75,7.25 75,10 L75,70 Z" id="Shape"></path>
        </g>
    </g>
</svg>