<?xml version="1.0" encoding="UTF-8"?>
<svg width="300px" height="250px" viewBox="0 0 300 250" version="1.1" xmlns="http://www.w3.org/2000/svg" xmlns:xlink="http://www.w3.org/1999/xlink">
    <!-- Generator: Sketch 61.2 (89653) - https://sketch.com -->
    <title>img8</title>
    <desc>Created with Sketch.</desc>
    <g id="img8" stroke="none" stroke-width="1" fill="none" fill-rule="evenodd">
        <rect id="Rectangle" fill="#011533" x="0" y="0" width="300" height="250"></rect>
        <g id="icon-members" transform="translate(110.000000, 85.000000)" fill="#FFFFFF" fill-rule="nonzero">
            <path d="M48.9375,41 C52.471875,36.75 54.375,31.25 54.375,25 C54.375,11.25 43.5,0 29.90625,0 C16.3125,0 5.4375,11.25 5.4375,25 C5.4375,31 7.6125,36.5 10.875,41 C4.621875,43 0,48.5 0,55 L0,65 C0,73.25 7.340625,80 16.3125,80 L43.5,80 C52.471875,80 59.8125,73.25 59.8125,65 L59.8125,55 C59.8125,48.5 55.190625,43 48.9375,41 Z M10.875,25 C10.875,14 19.303125,5 29.90625,5 C40.509375,5 48.9375,14 48.9375,25 C48.9375,36 40.509375,45 29.90625,45 C19.303125,45 10.875,36 10.875,25 Z M54.375,63.75 C54.375,70 48.39375,75 41.053125,75 L18.759375,75 C11.41875,75 5.4375,70 5.4375,63.75 L5.4375,56.25 C5.4375,51 9.7875,46.5 15.76875,45.25 C19.575,48.25 24.46875,50 29.90625,50 C35.34375,50 40.2375,48.25 44.04375,45.25 C50.025,46.5 54.375,50.75 54.375,56.25 L54.375,63.75 Z M62.53125,20 L84.28125,20 C85.9125,20 87,19 87,17.5 C87,16 85.9125,15 84.28125,15 L62.53125,15 C60.9,15 59.8125,16 59.8125,17.5 C59.8125,19 60.9,20 62.53125,20 Z M84.28125,60 L67.96875,60 C66.3375,60 65.25,61 65.25,62.5 C65.25,64 66.3375,65 67.96875,65 L84.28125,65 C85.9125,65 87,64 87,62.5 C87,61 85.9125,60 84.28125,60 Z M84.28125,30 L62.53125,30 C60.9,30 59.8125,31 59.8125,32.5 C59.8125,34 60.9,35 62.53125,35 L84.28125,35 C85.9125,35 87,34 87,32.5 C87,31 85.9125,30 84.28125,30 Z M84.28125,45 L67.96875,45 C66.3375,45 65.25,46 65.25,47.5 C65.25,49 66.3375,50 67.96875,50 L84.28125,50 C85.9125,50 87,49 87,47.5 C87,46 85.9125,45 84.28125,45 Z" id="Shape"></path>
        </g>
    </g>
</svg>