<?xml version="1.0" encoding="UTF-8"?>
<svg width="2000px" height="1168px" viewBox="0 0 2000 1168" version="1.1" xmlns="http://www.w3.org/2000/svg" xmlns:xlink="http://www.w3.org/1999/xlink">
    <!-- Generator: Sketch 61.2 (89653) - https://sketch.com -->
    <title>mainBackground Copy</title>
    <desc>Created with Sketch.</desc>
    <g id="mainBackground-Copy" stroke="none" stroke-width="1" fill="none" fill-rule="evenodd">
        <rect id="Rectangle" fill="#FFFFFF" x="0" y="0" width="3033" height="1312"></rect>
        <path d="M0,512 C0,512 172.318217,398.220088 237.681473,381.157519 C303.041891,364.087267 487.245884,290.132821 546.666253,244.622393 C606.083783,199.108124 777,0 777,0 L0,0 L0,512 Z" id="Fill-3" fill="#F4D426"></path>
        <path d="M2000,1167.95356 L2000,31 C2000,31 1717.37933,47.9710237 1525.44093,175.241289 C1333.50494,302.511555 1187.0271,395.843592 1121.36453,537.254786 C1055.70197,678.667889 964.785684,837.050107 944.581262,876.644706 C924.376839,916.239306 818.307841,1029.37055 788,1167.95356 L1091.05911,1167.95356 C1091.05911,1167.95356 1256.49413,1042.82783 1325.52932,1008.62798 C1402.42193,970.540089 1569.47813,888.887446 1671.92118,885.127353 C1732.61165,882.900706 1882.38734,953.242516 1853.75375,975.633115 C1788.29142,1026.82308 1399.16751,1167.95356 1399.16751,1167.95356 L2000,1167.95356 Z" id="Fill-5" fill="#F4D426"></path>
    </g>
</svg>